<svg width="100" height="100" viewBox="0 0 100 100" fill="none" xmlns="http://www.w3.org/2000/svg">
<rect width="100" height="100" rx="20" fill="#343A40"/>
<rect x="1" y="1" width="98" height="98" rx="19" stroke="#FF4A2F" stroke-width="4"/>
<path d="M48.7333 74H48.0333C46.82 74 45.6533 73.8833 44.5333 73.65C43.4133 73.4167 42.41 72.9967 41.5233 72.39C40.6833 71.7833 39.9833 70.9433 39.4233 69.87C38.91 68.7967 38.6533 67.3967 38.6533 65.67V31.58C38.6533 29.9 38.91 28.5233 39.4233 27.45C39.9367 26.3767 40.6133 25.5367 41.4533 24.93C42.2933 24.2767 43.25 23.8333 44.3233 23.6C45.3967 23.32 46.4933 23.18 47.6133 23.18H48.7333V74ZM50.2033 44.88H56.4333C56.4333 45.9533 56.34 46.9333 56.1533 47.82C56.0133 48.7067 55.71 49.5 55.2433 50.2C54.8233 50.8533 54.24 51.3667 53.4933 51.74C52.7467 52.1133 51.79 52.3 50.6233 52.3H50.2033V44.88ZM64.0633 67.28C64.0633 68.0733 63.9233 68.8667 63.6433 69.66C63.3633 70.4533 62.92 71.1767 62.3133 71.83C61.7067 72.4367 60.96 72.95 60.0733 73.37C59.1867 73.79 58.1367 74 56.9233 74C56.0367 74 55.1733 73.86 54.3333 73.58C53.4933 73.2533 52.7467 72.81 52.0933 72.25C51.4867 71.69 50.9733 71.0367 50.5533 70.29C50.18 69.5433 49.9933 68.7033 49.9933 67.77C49.9933 67.3967 49.9933 67.07 49.9933 66.79C50.04 66.4633 50.1333 66.1133 50.2733 65.74C50.88 66.3 51.6267 66.58 52.5133 66.58C53.2133 66.58 53.7967 66.37 54.2633 65.95C54.73 65.4833 54.9633 64.8067 54.9633 63.92V60.49C55.3367 60.3967 55.8033 60.35 56.3633 60.35C57.0167 60.35 57.7867 60.4433 58.6733 60.63C59.56 60.77 60.4 61.0967 61.1933 61.61C61.9867 62.1233 62.6633 62.8467 63.2233 63.78C63.7833 64.6667 64.0633 65.8333 64.0633 67.28ZM64.0633 29.83C64.0633 31.3233 63.7833 32.5133 63.2233 33.4C62.6633 34.2867 61.9867 34.9867 61.1933 35.5C60.4 36.0133 59.56 36.3633 58.6733 36.55C57.7867 36.69 57.0167 36.76 56.3633 36.76C55.8033 36.76 55.3367 36.7133 54.9633 36.62V33.4C54.9633 32.4667 54.73 31.7667 54.2633 31.3C53.8433 30.7867 53.26 30.53 52.5133 30.53C51.6267 30.53 50.88 30.81 50.2733 31.37C50.1333 30.9967 50.04 30.67 49.9933 30.39C49.9933 30.0633 49.9933 29.7133 49.9933 29.34C49.9933 28.78 50.11 28.15 50.3433 27.45C50.6233 26.7033 51.02 26.0267 51.5333 25.42C52.0933 24.7667 52.7933 24.23 53.6333 23.81C54.52 23.3433 55.57 23.11 56.7833 23.11C57.7633 23.11 58.6967 23.2733 59.5833 23.6C60.47 23.9267 61.24 24.3933 61.8933 25C62.5467 25.6067 63.06 26.33 63.4333 27.17C63.8533 27.9633 64.0633 28.85 64.0633 29.83Z" fill="#FF4A2F"/>
</svg>
