<svg width="144" height="137" viewBox="0 0 144 137" fill="none" xmlns="http://www.w3.org/2000/svg">
<g id="logo">
<rect id="border-circle" x="2.5" y="2.5" width="132" height="132" rx="66" stroke="#6947EF" stroke-width="5"/>
<circle id="circle-fill" cx="136.5" cy="19.5" r="7.5" fill="#6947EF"/>
<g id="txt">
<path id="L" d="M66.12 97V40.2H71.72V92.04H104.52V97H66.12Z" fill="#fff"/>
<path id="L_2" d="M71.88 97V40.2H66.28V92.04H33.48V97H71.88Z" fill="#fff"/>
<path id="U" d="M69.24 94.4C64.76 94.4 60.9733 93.6 57.88 92C54.7867 90.4 52.3333 88.2667 50.52 85.6C48.7067 82.88 47.3733 79.8133 46.52 76.4C45.72 72.9867 45.32 69.4667 45.32 65.84V37.2H50.84V65.84C50.84 68.7733 51.1333 71.6533 51.72 74.48C52.36 77.3067 53.3733 79.84 54.76 82.08C56.1467 84.32 58.0133 86.1067 60.36 87.44C62.7067 88.72 65.64 89.36 69.16 89.36C72.7867 89.36 75.7733 88.6933 78.12 87.36C80.52 85.9733 82.3867 84.16 83.72 81.92C85.1067 79.68 86.0933 77.1733 86.68 74.4C87.2667 71.5733 87.56 68.72 87.56 65.84V37.2H93.16V65.84C93.16 69.6267 92.7333 73.2533 91.88 76.72C91.0267 80.1867 89.64 83.2267 87.72 85.84C85.8533 88.4533 83.4 90.5333 80.36 92.08C77.32 93.6267 73.6133 94.4 69.24 94.4Z" fill="#fff"/>
<path id="fire-mid" d="M73.8212 27.0881C73.184 23.4405 69.3612 19 69.3612 19C69.3612 19 69.252 29.7445 67.5 28C65.748 26.2555 64.5827 35.3348 66.972 37.8722C69.3613 40.4097 71.2726 37.8722 71.2726 37.8722C73.3432 35.3348 74.4583 30.7357 73.8212 27.0881Z" fill="#7733ff"/>
<path id="fire-left" d="M44.1789 22.0881C44.8161 18.4405 48.6394 14 48.6394 14C48.6394 14 48.7485 24.7445 50.5007 23C52.253 21.2555 53.4184 30.3348 51.0288 32.8722C48.6393 35.4097 46.7277 32.8722 46.7277 32.8722C44.6569 30.3348 43.5417 25.7357 44.1789 22.0881Z" fill="#7733ff"/>
<path id="fire-right" d="M96.2002 22.0881C95.5631 18.4405 91.7402 14 91.7402 14C91.7402 14 91.6311 24.7445 89.879 23C88.127 21.2555 86.9617 30.3348 89.351 32.8722C91.7403 35.4097 93.6517 32.8722 93.6517 32.8722C95.7222 30.3348 96.8373 25.7357 96.2002 22.0881Z" fill="#7733ff"/>
</g>
</g>
</svg>
