<svg width="144" height="137" viewBox="0 0 144 137" fill="none" xmlns="http://www.w3.org/2000/svg">
<g id="logo">
<rect id="border-circle" x="2.5" y="2.5" width="132" height="132" rx="100" stroke="#7733ff" stroke-width="10"/>
<circle id="circle-fill" cx="140" cy="10.5" r="15" fill="#7733ff"/>
<!-- 136 -->
<g id="txt">
<path id="L" d="M66.12 103V46.2H71.72V98.04H104.52V103H66.12Z" fill="white"/>
<path id="L_2" d="M71.88 103V46.2H66.28V98.04H33.48V103H71.88Z" fill="white"/>
<path id="U" d="M69.24 100.4C64.76 100.4 60.9733 99.6 57.88 98C54.7867 96.4 52.3333 94.2667 50.52 91.6C48.7067 88.88 47.3733 85.8133 46.52 82.4C45.72 78.9867 45.32 75.4667 45.32 71.84V43.2H50.84V71.84C50.84 74.7733 51.1333 77.6533 51.72 80.48C52.36 83.3067 53.3733 85.84 54.76 88.08C56.1467 90.32 58.0133 92.1067 60.36 93.44C62.7067 94.72 65.64 95.36 69.16 95.36C72.7867 95.36 75.7733 94.6933 78.12 93.36C80.52 91.9733 82.3867 90.16 83.72 87.92C85.1067 85.68 86.0933 83.1733 86.68 80.4C87.2667 77.5733 87.56 74.72 87.56 71.84V43.2H93.16V71.84C93.16 75.6267 92.7333 79.2533 91.88 82.72C91.0267 86.1867 89.64 89.2267 87.72 91.84C85.8533 94.4533 83.4 96.5333 80.36 98.08C77.32 99.6267 73.6133 100.4 69.24 100.4Z" fill="white"/>
<path class='fire' id="fire-mid" d="M73.8212 30.0881C73.184 26.4405 69.3612 22 69.3612 22C69.3612 22 69.252 32.7445 67.5 31C65.748 29.2555 64.5827 38.3348 66.972 40.8722C69.3613 43.4097 71.2726 40.8722 71.2726 40.8722C73.3432 38.3348 74.4583 33.7357 73.8212 30.0881Z" fill="#7733ff"/>
<path class='fire' id="fire-left" d="M44.1789 25.0881C44.8161 21.4405 48.6394 17 48.6394 17C48.6394 17 48.7485 27.7445 50.5007 26C52.253 24.2555 53.4184 33.3348 51.0288 35.8722C48.6393 38.4097 46.7277 35.8722 46.7277 35.8722C44.6569 33.3348 43.5417 28.7357 44.1789 25.0881Z" fill="#7733ff"/>
<path class='fire' id="fire-right" d="M96.2002 25.0881C95.5631 21.4405 91.7402 17 91.7402 17C91.7402 17 91.6311 27.7445 89.879 26C88.127 24.2555 86.9617 33.3348 89.351 35.8722C91.7403 38.4097 93.6517 35.8722 93.6517 35.8722C95.7222 33.3348 96.8373 28.7357 96.2002 25.0881Z" fill="#7733ff"/>
</g>
</g>
</svg>
